<svg width="200" height="74" viewBox="0 0 200 74" fill="none" xmlns="http://www.w3.org/2000/svg">
<path d="M0.000606212 38.7315V71.6305H15.4757V59.4135H35.4708V71.6305H49.7876V55.181C49.7876 55.181 51.1733 55.1014 51.7609 57.3371C52.3486 59.5729 53.8939 73.661 63.8649 73.661C67.5384 73.661 70.1333 71.6691 71.3328 69.1533C73.3908 64.8412 72.2905 58.9886 72.2905 58.9886H65.7319V64.4717C65.7319 64.4717 65.6787 66.1763 64.2397 66.1763C62.8008 66.1763 60.6218 58.8823 60.6218 48.8745V38.734H0.000606212V38.7315Z" fill="#DD3B4E"/>
<path d="M0.00270682 36.9739V25.1552C0.00270682 25.1552 -0.906599 9.67877 30.6072 9.67877C62.1209 9.67877 60.6094 25.1552 60.6094 25.1552V36.9739H0.00270682Z" fill="#164570"/>
<path d="M48.6969 30.9861L47.1515 26.5435L42.443 26.447L46.1963 23.6052L44.8323 19.1047L48.6969 21.7919L52.5639 19.1047L51.1999 23.6052L54.9532 26.447L50.2446 26.5435L48.6969 30.9861Z" fill="white"/>
<path d="M30.3028 30.665L28.755 26.2248L24.0464 26.1283L27.7998 23.2865L26.4358 18.786L30.3028 21.4708L34.1673 18.786L32.8034 23.2865L36.5567 26.1283L31.8481 26.2248L30.3028 30.665Z" fill="white"/>
<path d="M11.8651 30.665L10.3174 26.2248L5.6088 26.1283L9.36211 23.2865L7.99815 18.786L11.8651 21.4708L15.7297 18.786L14.3657 23.2865L18.1214 26.1283L13.4105 26.2248L11.8651 30.665Z" fill="white"/>
<path d="M144.468 36.8392C144.468 36.8392 143.179 33.8779 141.81 32.1781C137.06 25.9297 137.582 32.9251 130.793 33.5767C124.109 33.2803 125.67 29.5646 126.844 25.3125C128.576 22.4271 127.5 18.9906 128.676 16.1787C129.322 14.8634 129.945 13.6877 129.945 13.1415C129.945 12.5953 127.288 9.61682 127.185 8.54399C127.083 7.47116 127.044 4.73765 127.668 2.91286C128.291 1.08807 129.239 1.47507 129.239 1.47507C129.239 1.47507 129.56 1.51671 130.206 3.07452C130.851 4.63478 132.561 8.82567 133.631 8.82567C135.282 8.23537 134.018 5.519 135.061 3.52031C135.933 2.02129 136.934 -1.04779 137.82 0.360605C139.087 2.7414 140.01 5.28631 139.935 8.0982C139.996 9.43556 139.915 10.3271 140.58 10.6309C141.245 10.9346 146.139 12.392 148.294 13.7489C152.486 16.2081 154.927 20.5043 158.888 21.3836C162.437 21.2367 165.452 21.9495 167.628 21.1412C172.041 19.8332 178.774 16.7788 183.821 16.3404C189.596 16.4359 195.447 21.3861 195.623 27.2769C195.623 29.1408 194.556 36.8392 194.556 36.8392H144.468Z" fill="#164570"/>
<path d="M150.733 24.7689L151.946 28.2814L155.643 28.3573L152.696 30.6034L153.768 34.1599L150.733 32.0363L147.698 34.1599L148.769 30.6034L145.822 28.3573L149.52 28.2814L150.733 24.7689Z" fill="white"/>
<path d="M163.219 24.7689L164.434 28.2814L168.129 28.3573L165.184 30.6034L166.254 34.1599L163.219 32.0363L160.186 34.1599L161.255 30.6034L158.31 28.3573L162.006 28.2814L163.219 24.7689Z" fill="white"/>
<path d="M175.868 24.7689L177.081 28.2814L180.776 28.3573L177.831 30.6034L178.903 34.1599L175.868 32.0363L172.833 34.1599L173.902 30.6034L170.957 28.3573L174.652 28.2814L175.868 24.7689Z" fill="white"/>
<path d="M188.193 24.7689L189.406 28.2814L193.104 28.3573L190.157 30.6034L191.228 34.1599L188.193 32.0363L185.158 34.1599L186.23 30.6034L183.283 28.3573L186.98 28.2814L188.193 24.7689Z" fill="white"/>
<path d="M145.081 38.2258C145.081 38.2258 147.659 49.204 147.849 51.5529C148.017 57.2184 148.353 58.0781 147.257 62.2739C146.913 64.0766 146.801 65.534 146.536 65.899C146.27 66.2639 143.43 70.7806 143.43 70.7806C141.825 73.5729 145.99 72.6862 147.99 72.8062C149.595 72.8062 151.003 72.9483 151.144 72.1792C151.488 69.5926 151.585 69.987 153.319 70.8026C153.319 70.8026 153.682 71.1676 154.084 70.783C154.486 70.3985 158.233 66.1047 158.233 66.1047C158.233 66.1047 158.756 65.6393 158.233 65.1935C157.709 64.7477 155.957 63.9174 155.534 62.5213C154.209 58.2912 153.768 57.3898 155.01 52.4568C156.34 49.4269 157.024 47.1318 158.554 47.0902C159.46 47.051 165.201 46.4631 167.075 46.1373C168.948 45.814 171.406 44.9837 172.453 46.8869C173.878 49.8163 175.607 52.9687 175.717 54.2791C175.415 55.4107 174.93 57.6739 174.509 58.8962C174.207 59.4032 167.803 68.6178 167.803 68.6178C166.78 70.4965 169.64 71.0819 171.308 71.028C172.597 71.028 173.303 70.9471 173.866 70.156C174.428 69.3648 176.565 65.7202 177.49 64.7086C179.902 62.7442 179.154 60.1503 179.322 58.1467L184.177 53.3459C184.177 53.3459 184.7 52.8389 184.7 52.0306C184.7 51.2198 183.531 48.2242 183.531 48.2242C183.531 48.2242 183.027 47.3939 183.711 46.8477C184.396 46.3015 184.98 47.4551 184.98 47.4551L187.981 53.1671C188.033 53.1328 188.11 61.1619 188.084 61.4901C188.084 61.4901 187.377 63.4349 187.114 64.7698C186.854 66.1072 186.854 67.5645 186.854 67.5645C186.854 67.8536 181.5 71.8901 183.914 73.0316C184.781 73.6194 187.277 73.9427 188.948 73.3549C191.431 72.2331 192.139 69.4628 193.36 67.8462L193.803 59.3812C194.29 58.203 195.174 56.8656 194.648 54.7028C194.081 52.0257 189.552 37.4886 196.48 46.2378C196.843 46.7032 197.347 47.4135 197.406 48.3834C197.464 49.3534 198.514 51.2786 198.655 51.624C198.796 51.9693 198.938 52.7384 199.179 52.6968C199.985 52.5743 200.58 47.3033 199.057 46.9652C197.454 46.059 193.905 40.2662 193.842 38.2283H145.081V38.2258Z" fill="#DD3B4E"/>
</svg>
