<svg width="140" height="140" viewBox="0 0 140 140" fill="none" xmlns="http://www.w3.org/2000/svg">
<g clip-path="url(#clip0_54_9)">
<path d="M120 0H0L140 140V20C140 8.95 131.05 0 120 0Z" fill="#1866AD"/>
<path d="M96.05 24.93C96.35 24.01 97.65 24.01 97.95 24.93L101.26 35.13C101.39 35.54 101.78 35.82 102.21 35.82H112.94C113.91 35.82 114.31 37.06 113.53 37.63L104.85 43.93C104.5 44.18 104.35 44.64 104.49 45.05L107.81 55.25C108.11 56.17 107.06 56.94 106.27 56.37L97.59 50.07C97.24 49.82 96.76 49.82 96.41 50.07L87.73 56.37C86.95 56.94 85.89 56.17 86.19 55.25L89.5 45.05C89.63 44.64 89.49 44.19 89.14 43.93L80.46 37.63C79.68 37.06 80.08 35.82 81.05 35.82H91.78C92.21 35.82 92.6 35.54 92.73 35.13L96.04 24.93H96.05Z" fill="white"/>
</g>
<defs>
<clipPath id="clip0_54_9">
<rect width="140" height="140" fill="white"/>
</clipPath>
</defs>
</svg>
