<svg width="64" height="64" viewBox="0 0 64 64" fill="none" xmlns="http://www.w3.org/2000/svg">
<path fill-rule="evenodd" clip-rule="evenodd" d="M36.3365 10.4903L63.9878 3L63.6165 10.736L36.0278 18.3158L35.8694 22.3286L63.2752 15.1136L62.9054 22.6083L35.5703 29.9087L35.4066 34.0575L62.5627 26.5145L62.1942 34.3936L35.0921 42.03L34.9377 45.9416L62.5627 38.6279L62.1882 46.262L26.9347 55.7294L27.4038 52.2017L2.64598 60.6494C1.30884 61.1057 -0.0669908 60.0693 0.0025289 58.6582L2.02964 17.5115C2.07154 16.661 2.64739 15.9303 3.46455 15.6907L33.8428 6.78459C35.1551 6.39986 36.4578 7.41619 36.4039 8.78266L36.3365 10.4903ZM23.7964 34.4723C22.6935 35.5548 21.0067 36.3248 18.7286 36.7853L18.7253 36.7816L16.0428 37.3245L15.6763 43.4201C15.6467 43.9127 15.4154 44.2011 14.9821 44.2889L12.6246 44.766C12.1914 44.8538 11.9895 44.6531 12.0191 44.1605L13.0897 26.3558C13.1193 25.8632 13.3506 25.5748 13.7838 25.487L19.477 24.339C21.755 23.8785 23.3932 23.977 24.3879 24.6343C25.3862 25.2919 25.8433 26.2904 25.7625 27.6335L25.5699 30.8372C25.4891 32.1804 24.8957 33.3896 23.7964 34.4723ZM22.0861 29.0486C22.1714 27.631 21.2392 27.1197 19.2861 27.5144L16.6036 28.0574L16.2371 34.1529L18.9195 33.61C19.8402 33.4235 20.5695 33.0974 21.1073 32.6354C21.645 32.1733 21.9327 31.6002 21.9736 30.9198L22.0861 29.0486Z" fill="#DD3B4E"/>
</svg>
