<svg width="500" height="63" viewBox="0 0 500 63" fill="none" xmlns="http://www.w3.org/2000/svg">
<path d="M21.0221 40.1577H12.1282V59.4729C12.1282 61.09 11.4094 61.8087 9.97204 61.8087H2.15612C0.718706 61.8087 0 61.09 0 59.4729V3.0545C0 1.52725 0.718706 0.718707 2.15612 0.718707H21.0221C28.5685 0.718707 34.0487 2.15612 37.5524 4.85126C40.9662 7.63624 42.763 11.1399 42.763 15.3623V25.514C42.763 29.8263 40.9662 33.33 37.5524 36.0251C34.0487 38.8101 28.5685 40.1577 21.0221 40.1577ZM21.0221 10.7806H12.1282V30.0958H21.0221C24.0766 30.0958 26.4124 29.5568 28.1193 28.3889C29.8263 27.3108 30.7247 25.6039 30.7247 23.4478V17.5184C30.7247 13.0265 27.4905 10.7806 21.0221 10.7806Z" fill="#164570"/>
<path d="M61.3338 47.8838V14.6436C61.3338 10.5111 63.0407 7.00738 66.5444 4.22239C70.0481 1.43741 75.6181 0 83.1645 0C90.7109 0 96.191 1.43741 99.6947 4.22239C103.198 7.00738 104.995 10.5111 104.995 14.6436V47.8838C104.995 52.1061 103.198 55.6098 99.6947 58.3948C96.191 61.1798 90.7109 62.5274 83.1645 62.5274C75.6181 62.5274 70.0481 61.1798 66.5444 58.3948C63.0407 55.6098 61.3338 52.1061 61.3338 47.8838ZM92.867 45.7276V16.7997C92.867 12.3078 89.6328 10.0619 83.1645 10.0619C76.6961 10.0619 73.5518 12.3078 73.5518 16.7997V45.7276C73.5518 50.2195 76.6961 52.4655 83.1645 52.4655C89.6328 52.4655 92.867 50.2195 92.867 45.7276Z" fill="#164570"/>
<path d="M139.053 3.0545V51.7468H159.087C160.525 51.7468 161.333 52.4655 161.333 53.9029V59.5627C161.333 61.09 160.525 61.8087 159.087 61.8087H128.812C127.554 61.8087 126.925 61.09 126.925 59.4729V3.0545C126.925 1.52725 127.644 0.718707 129.081 0.718707H136.897C138.335 0.718707 139.053 1.52725 139.053 3.0545Z" fill="#164570"/>
<path d="M192.076 3.0545V59.4729C192.076 61.09 191.357 61.8087 189.92 61.8087H182.104C180.666 61.8087 179.947 61.09 179.947 59.4729V3.0545C179.947 1.52725 180.666 0.718707 182.104 0.718707H189.92C191.357 0.718707 192.076 1.52725 192.076 3.0545Z" fill="#164570"/>
<path d="M211.755 0.718707H249.487C250.924 0.718707 251.733 1.43741 251.733 2.87482V8.53462C251.733 10.0619 250.924 10.7806 249.487 10.7806H236.73V59.4729C236.73 61.09 236.011 61.8087 234.574 61.8087H226.758C225.23 61.8087 224.512 61.09 224.512 59.4729V10.7806H211.755C210.227 10.7806 209.509 10.0619 209.509 8.53462V2.87482C209.509 1.43741 210.227 0.718707 211.755 0.718707Z" fill="#164570"/>
<path d="M281.451 3.0545V59.4729C281.451 61.09 280.733 61.8087 279.295 61.8087H271.479C270.042 61.8087 269.323 61.09 269.323 59.4729V3.0545C269.323 1.52725 270.042 0.718707 271.479 0.718707H279.295C280.733 0.718707 281.451 1.52725 281.451 3.0545Z" fill="#164570"/>
<path d="M345.421 42.3138V47.8838C345.421 52.196 343.714 55.6997 340.479 58.3948C337.245 61.1798 331.855 62.5274 324.309 62.5274C316.762 62.5274 311.282 61.1798 308.048 58.3948C304.814 55.6997 303.197 52.196 303.197 47.8838V14.6436C303.197 10.4212 304.814 6.91754 308.048 4.13256C311.282 1.43741 316.762 0 324.309 0C331.855 0 337.245 1.43741 340.479 4.13256C343.714 6.91754 345.421 10.4212 345.421 14.6436V18.9559C345.421 20.4831 344.702 21.2018 343.354 21.2018H335.898C334.37 21.2018 333.652 20.4831 333.652 18.9559V16.7997C333.652 12.3078 330.597 10.0619 324.488 10.0619C318.379 10.0619 315.415 12.3078 315.415 16.7997V45.7276C315.415 50.2195 318.379 52.4655 324.488 52.4655C330.597 52.4655 333.652 50.2195 333.652 45.7276V42.3138C333.652 40.8764 334.37 40.0678 335.898 40.0678H343.354C344.702 40.0678 345.421 40.8764 345.421 42.3138Z" fill="#164570"/>
<path d="M389.349 30.7247L410.461 59.5627C410.82 60.1017 410.91 60.6408 410.73 61.09C410.551 61.629 410.012 61.8087 409.293 61.8087H399.321C398.243 61.8087 397.165 61.09 396.087 59.5627L379.197 36.0251H377.67V59.5627C377.67 61.09 376.951 61.8087 375.514 61.8087H367.698C366.26 61.8087 365.542 61.09 365.542 59.5627V2.96466C365.542 1.52725 366.26 0.718707 367.698 0.718707H375.514C376.951 0.718707 377.67 1.52725 377.67 2.96466V27.1311H379.107L395.099 2.96466C395.997 1.52725 397.255 0.718707 398.692 0.718707H407.047C407.766 0.718707 408.305 0.988218 408.484 1.43741C408.664 1.8866 408.484 2.42563 408.125 2.96466L389.349 30.7247Z" fill="#164570"/>
<path d="M440.343 3.0545V59.4729C440.343 61.09 439.624 61.8087 438.187 61.8087H430.371C428.933 61.8087 428.215 61.09 428.215 59.4729V3.0545C428.215 1.52725 428.933 0.718707 430.371 0.718707H438.187C439.624 0.718707 440.343 1.52725 440.343 3.0545Z" fill="#164570"/>
<path d="M460.022 0.718707H497.754C499.191 0.718707 500 1.43741 500 2.87482V8.53462C500 10.0619 499.191 10.7806 497.754 10.7806H484.997V59.4729C484.997 61.09 484.278 61.8087 482.841 61.8087H475.025C473.498 61.8087 472.779 61.09 472.779 59.4729V10.7806H460.022C458.495 10.7806 457.776 10.0619 457.776 8.53462V2.87482C457.776 1.43741 458.495 0.718707 460.022 0.718707Z" fill="#164570"/>
</svg>
